<svg xmlns="http://www.w3.org/2000/svg" xmlns:xlink="http://www.w3.org/1999/xlink" width="1920" zoomAndPan="magnify" viewBox="0 0 1440 809.999993" height="1080" preserveAspectRatio="xMidYMid meet" version="1.2"><defs><clipPath id="a9cfdcff72"><path d="M 434 108 L 1046.503906 108 L 1046.503906 722 L 434 722 Z M 434 108 "/></clipPath><clipPath id="0568265a2e"><path d="M 393.253906 88 L 1006 88 L 1006 702 L 393.253906 702 Z M 393.253906 88 "/></clipPath><clipPath id="75ddc39171"><path d="M 434 108 L 1046.503906 108 L 1046.503906 722 L 434 722 Z M 434 108 "/></clipPath><clipPath id="cd120fdad3"><path d="M 393.253906 88 L 1006 88 L 1006 702 L 393.253906 702 Z M 393.253906 88 "/></clipPath></defs><g id="b1b1c4e0a4"><g clip-rule="nonzero" clip-path="url(#a9cfdcff72)"><path style=" stroke:none;fill-rule:nonzero;fill:#000000;fill-opacity:0.3;" d="M 1046.503906 292.6875 L 1046.503906 435.644531 L 1026.089844 435.644531 L 1026.089844 476.488281 L 1005.675781 476.488281 L 1005.675781 496.910156 L 985.261719 496.910156 L 985.261719 517.332031 L 964.847656 517.332031 L 964.847656 537.753906 L 944.433594 537.753906 L 944.433594 558.175781 L 924.019531 558.175781 L 924.019531 578.597656 L 883.191406 578.597656 L 883.191406 599.019531 L 821.949219 599.019531 L 821.949219 721.554688 L 781.121094 721.554688 L 781.121094 701.132812 L 760.707031 701.132812 L 760.707031 680.707031 L 740.292969 680.707031 L 740.292969 660.285156 L 719.878906 660.285156 L 719.878906 619.441406 L 658.636719 619.441406 L 658.636719 599.019531 L 597.394531 599.019531 L 597.394531 578.597656 L 556.566406 578.597656 L 556.566406 558.175781 L 536.152344 558.175781 L 536.152344 537.753906 L 515.738281 537.753906 L 515.738281 517.332031 L 495.324219 517.332031 L 495.324219 496.910156 L 474.910156 496.910156 L 474.910156 476.488281 L 454.496094 476.488281 L 454.496094 435.644531 L 434.082031 435.644531 L 434.082031 292.6875 L 454.496094 292.6875 L 454.496094 251.84375 L 474.910156 251.84375 L 474.910156 231.421875 L 495.324219 231.421875 L 495.324219 211 L 515.738281 211 L 515.738281 190.578125 L 536.152344 190.578125 L 536.152344 170.15625 L 556.566406 170.15625 L 556.566406 149.734375 L 597.394531 149.734375 L 597.394531 129.3125 L 658.636719 129.3125 L 658.636719 108.890625 L 821.949219 108.890625 L 821.949219 129.3125 L 883.191406 129.3125 L 883.191406 149.734375 L 924.019531 149.734375 L 924.019531 170.15625 L 944.433594 170.15625 L 944.433594 190.578125 L 964.847656 190.578125 L 964.847656 211 L 985.261719 211 L 985.261719 231.421875 L 1005.675781 231.421875 L 1005.675781 251.84375 L 1026.089844 251.84375 L 1026.089844 292.6875 Z M 1046.503906 292.6875 "/></g><path style=" stroke:none;fill-rule:nonzero;fill:#ffffff;fill-opacity:1;" d="M 413.667969 415.222656 L 413.667969 272.265625 L 434.082031 231.421875 L 515.738281 149.734375 L 556.566406 129.3125 L 617.808594 108.890625 L 781.121094 108.890625 L 842.363281 129.3125 L 883.191406 149.734375 L 964.847656 231.421875 L 985.261719 272.265625 L 985.261719 415.222656 L 964.847656 456.066406 L 883.191406 537.753906 L 842.363281 558.175781 L 781.121094 578.597656 L 760.707031 578.597656 L 760.707031 680.707031 L 740.292969 680.707031 L 740.292969 660.285156 L 719.878906 660.285156 L 699.464844 639.863281 L 679.050781 599.019531 L 556.566406 558.175781 L 515.738281 537.753906 L 434.082031 456.066406 Z M 413.667969 415.222656 "/><path style=" stroke:none;fill-rule:nonzero;fill:#000000;fill-opacity:0.3;" d="M 454.496094 272.265625 L 434.082031 272.265625 L 434.082031 231.421875 L 454.496094 231.421875 Z M 434.082031 415.222656 L 434.082031 456.066406 L 454.496094 456.066406 L 454.496094 415.222656 Z M 474.910156 211 L 454.496094 211 L 454.496094 231.421875 L 474.910156 231.421875 Z M 454.496094 456.066406 L 454.496094 476.488281 L 474.910156 476.488281 L 474.910156 456.066406 Z M 679.050781 578.597656 L 679.050781 599.019531 L 699.464844 599.019531 L 699.464844 578.597656 Z M 699.464844 599.019531 L 699.464844 639.863281 L 719.878906 639.863281 L 719.878906 599.019531 Z M 719.878906 639.863281 L 719.878906 660.285156 L 740.292969 660.285156 L 740.292969 639.863281 Z M 740.292969 660.285156 L 740.292969 680.707031 L 760.707031 680.707031 L 760.707031 660.285156 Z M 495.324219 496.910156 L 495.324219 517.332031 L 515.738281 517.332031 L 515.738281 496.910156 Z M 515.738281 517.332031 L 515.738281 537.753906 L 556.566406 537.753906 L 556.566406 517.332031 Z M 556.566406 537.753906 L 556.566406 558.175781 L 617.808594 558.175781 L 617.808594 537.753906 Z M 617.808594 558.175781 L 617.808594 578.597656 L 679.050781 578.597656 L 679.050781 558.175781 Z M 495.324219 190.578125 L 474.910156 190.578125 L 474.910156 211 L 495.324219 211 Z M 474.910156 476.488281 L 474.910156 496.910156 L 495.324219 496.910156 L 495.324219 476.488281 Z M 515.738281 170.15625 L 495.324219 170.15625 L 495.324219 190.578125 L 515.738281 190.578125 Z M 556.566406 149.734375 L 515.738281 149.734375 L 515.738281 170.15625 L 556.566406 170.15625 Z M 617.808594 129.3125 L 556.566406 129.3125 L 556.566406 149.734375 L 617.808594 149.734375 Z M 434.082031 374.375 L 434.082031 272.265625 L 413.667969 272.265625 L 413.667969 415.222656 L 434.082031 415.222656 Z M 434.082031 374.375 "/><path style=" stroke:none;fill-rule:nonzero;fill:#1700d1;fill-opacity:1;" d="M 658.636719 231.421875 L 638.222656 231.421875 L 638.222656 190.578125 L 658.636719 190.578125 L 658.636719 170.15625 L 740.292969 170.15625 L 740.292969 190.578125 L 760.707031 190.578125 L 760.707031 231.421875 L 740.292969 231.421875 L 740.292969 251.84375 L 658.636719 251.84375 Z M 781.121094 476.488281 L 760.707031 476.488281 L 760.707031 292.6875 L 617.808594 292.6875 L 617.808594 313.109375 L 658.636719 313.109375 L 658.636719 476.488281 L 617.808594 476.488281 L 617.808594 496.910156 L 801.535156 496.910156 L 801.535156 476.488281 Z M 781.121094 476.488281 "/><g clip-rule="nonzero" clip-path="url(#0568265a2e)"><path style=" stroke:none;fill-rule:nonzero;fill:#000000;fill-opacity:1;" d="M 638.222656 108.890625 L 617.808594 108.890625 L 617.808594 88.46875 L 781.121094 88.46875 L 781.121094 108.890625 Z M 597.394531 129.3125 L 617.808594 129.3125 L 617.808594 108.890625 L 556.566406 108.890625 L 556.566406 129.3125 Z M 801.535156 129.3125 L 842.363281 129.3125 L 842.363281 108.890625 L 781.121094 108.890625 L 781.121094 129.3125 Z M 556.566406 149.734375 L 556.566406 129.3125 L 515.738281 129.3125 L 515.738281 149.734375 Z M 862.777344 149.734375 L 883.191406 149.734375 L 883.191406 129.3125 L 842.363281 129.3125 L 842.363281 149.734375 Z M 515.738281 149.734375 L 495.324219 149.734375 L 495.324219 170.15625 L 515.738281 170.15625 Z M 903.605469 170.15625 L 903.605469 149.734375 L 883.191406 149.734375 L 883.191406 170.15625 Z M 495.324219 170.15625 L 474.910156 170.15625 L 474.910156 190.578125 L 495.324219 190.578125 Z M 924.019531 190.578125 L 924.019531 170.15625 L 903.605469 170.15625 L 903.605469 190.578125 Z M 474.910156 190.578125 L 454.496094 190.578125 L 454.496094 211 L 474.910156 211 Z M 944.433594 211 L 944.433594 190.578125 L 924.019531 190.578125 L 924.019531 211 Z M 454.496094 211 L 434.082031 211 L 434.082031 231.421875 L 454.496094 231.421875 Z M 964.847656 231.421875 L 964.847656 211 L 944.433594 211 L 944.433594 231.421875 Z M 434.082031 251.84375 L 434.082031 231.421875 L 413.667969 231.421875 L 413.667969 272.265625 L 434.082031 272.265625 Z M 964.847656 272.265625 L 985.261719 272.265625 L 985.261719 231.421875 L 964.847656 231.421875 Z M 985.261719 272.265625 L 985.261719 415.222656 L 1005.675781 415.222656 L 1005.675781 272.265625 Z M 413.667969 374.375 L 413.667969 272.265625 L 393.253906 272.265625 L 393.253906 415.222656 L 413.667969 415.222656 Z M 434.082031 415.222656 L 413.667969 415.222656 L 413.667969 456.066406 L 434.082031 456.066406 Z M 964.847656 435.644531 L 964.847656 456.066406 L 985.261719 456.066406 L 985.261719 415.222656 L 964.847656 415.222656 Z M 434.082031 456.066406 L 434.082031 476.488281 L 454.496094 476.488281 L 454.496094 456.066406 Z M 944.433594 476.488281 L 964.847656 476.488281 L 964.847656 456.066406 L 944.433594 456.066406 Z M 454.496094 476.488281 L 454.496094 496.910156 L 474.910156 496.910156 L 474.910156 476.488281 Z M 924.019531 496.910156 L 944.433594 496.910156 L 944.433594 476.488281 L 924.019531 476.488281 Z M 474.910156 496.910156 L 474.910156 517.332031 L 495.324219 517.332031 L 495.324219 496.910156 Z M 903.605469 517.332031 L 924.019531 517.332031 L 924.019531 496.910156 L 903.605469 496.910156 Z M 495.324219 517.332031 L 495.324219 537.753906 L 515.738281 537.753906 L 515.738281 517.332031 Z M 883.191406 537.753906 L 903.605469 537.753906 L 903.605469 517.332031 L 883.191406 517.332031 Z M 536.152344 537.753906 L 515.738281 537.753906 L 515.738281 558.175781 L 556.566406 558.175781 L 556.566406 537.753906 Z M 842.363281 537.753906 L 842.363281 558.175781 L 883.191406 558.175781 L 883.191406 537.753906 Z M 597.394531 558.175781 L 556.566406 558.175781 L 556.566406 578.597656 L 617.808594 578.597656 L 617.808594 558.175781 Z M 801.535156 558.175781 L 781.121094 558.175781 L 781.121094 578.597656 L 842.363281 578.597656 L 842.363281 558.175781 Z M 658.636719 578.597656 L 617.808594 578.597656 L 617.808594 599.019531 L 679.050781 599.019531 L 679.050781 578.597656 Z M 760.707031 599.019531 L 760.707031 680.707031 L 740.292969 680.707031 L 740.292969 701.132812 L 781.121094 701.132812 L 781.121094 578.597656 L 760.707031 578.597656 Z M 699.464844 599.019531 L 679.050781 599.019531 L 679.050781 639.863281 L 699.464844 639.863281 Z M 699.464844 639.863281 L 699.464844 660.285156 L 719.878906 660.285156 L 719.878906 639.863281 Z M 719.878906 660.285156 L 719.878906 680.707031 L 740.292969 680.707031 L 740.292969 660.285156 Z M 719.878906 660.285156 "/></g><g clip-rule="nonzero" clip-path="url(#75ddc39171)"><path style=" stroke:none;fill-rule:nonzero;fill:#000000;fill-opacity:0.3;" d="M 1046.503906 292.6875 L 1046.503906 435.644531 L 1026.089844 435.644531 L 1026.089844 476.488281 L 1005.675781 476.488281 L 1005.675781 496.910156 L 985.261719 496.910156 L 985.261719 517.332031 L 964.847656 517.332031 L 964.847656 537.753906 L 944.433594 537.753906 L 944.433594 558.175781 L 924.019531 558.175781 L 924.019531 578.597656 L 883.191406 578.597656 L 883.191406 599.019531 L 821.949219 599.019531 L 821.949219 721.554688 L 781.121094 721.554688 L 781.121094 701.132812 L 760.707031 701.132812 L 760.707031 680.707031 L 740.292969 680.707031 L 740.292969 660.285156 L 719.878906 660.285156 L 719.878906 619.441406 L 658.636719 619.441406 L 658.636719 599.019531 L 597.394531 599.019531 L 597.394531 578.597656 L 556.566406 578.597656 L 556.566406 558.175781 L 536.152344 558.175781 L 536.152344 537.753906 L 515.738281 537.753906 L 515.738281 517.332031 L 495.324219 517.332031 L 495.324219 496.910156 L 474.910156 496.910156 L 474.910156 476.488281 L 454.496094 476.488281 L 454.496094 435.644531 L 434.082031 435.644531 L 434.082031 292.6875 L 454.496094 292.6875 L 454.496094 251.84375 L 474.910156 251.84375 L 474.910156 231.421875 L 495.324219 231.421875 L 495.324219 211 L 515.738281 211 L 515.738281 190.578125 L 536.152344 190.578125 L 536.152344 170.15625 L 556.566406 170.15625 L 556.566406 149.734375 L 597.394531 149.734375 L 597.394531 129.3125 L 658.636719 129.3125 L 658.636719 108.890625 L 821.949219 108.890625 L 821.949219 129.3125 L 883.191406 129.3125 L 883.191406 149.734375 L 924.019531 149.734375 L 924.019531 170.15625 L 944.433594 170.15625 L 944.433594 190.578125 L 964.847656 190.578125 L 964.847656 211 L 985.261719 211 L 985.261719 231.421875 L 1005.675781 231.421875 L 1005.675781 251.84375 L 1026.089844 251.84375 L 1026.089844 292.6875 Z M 1046.503906 292.6875 "/></g><path style=" stroke:none;fill-rule:nonzero;fill:#ffffff;fill-opacity:1;" d="M 413.667969 415.222656 L 413.667969 272.265625 L 434.082031 231.421875 L 515.738281 149.734375 L 556.566406 129.3125 L 617.808594 108.890625 L 781.121094 108.890625 L 842.363281 129.3125 L 883.191406 149.734375 L 964.847656 231.421875 L 985.261719 272.265625 L 985.261719 415.222656 L 964.847656 456.066406 L 883.191406 537.753906 L 842.363281 558.175781 L 781.121094 578.597656 L 760.707031 578.597656 L 760.707031 680.707031 L 740.292969 680.707031 L 740.292969 660.285156 L 719.878906 660.285156 L 699.464844 639.863281 L 679.050781 599.019531 L 556.566406 558.175781 L 515.738281 537.753906 L 434.082031 456.066406 Z M 413.667969 415.222656 "/><path style=" stroke:none;fill-rule:nonzero;fill:#000000;fill-opacity:0.3;" d="M 454.496094 272.265625 L 434.082031 272.265625 L 434.082031 231.421875 L 454.496094 231.421875 Z M 434.082031 415.222656 L 434.082031 456.066406 L 454.496094 456.066406 L 454.496094 415.222656 Z M 474.910156 211 L 454.496094 211 L 454.496094 231.421875 L 474.910156 231.421875 Z M 454.496094 456.066406 L 454.496094 476.488281 L 474.910156 476.488281 L 474.910156 456.066406 Z M 679.050781 578.597656 L 679.050781 599.019531 L 699.464844 599.019531 L 699.464844 578.597656 Z M 699.464844 599.019531 L 699.464844 639.863281 L 719.878906 639.863281 L 719.878906 599.019531 Z M 719.878906 639.863281 L 719.878906 660.285156 L 740.292969 660.285156 L 740.292969 639.863281 Z M 740.292969 660.285156 L 740.292969 680.707031 L 760.707031 680.707031 L 760.707031 660.285156 Z M 495.324219 496.910156 L 495.324219 517.332031 L 515.738281 517.332031 L 515.738281 496.910156 Z M 515.738281 517.332031 L 515.738281 537.753906 L 556.566406 537.753906 L 556.566406 517.332031 Z M 556.566406 537.753906 L 556.566406 558.175781 L 617.808594 558.175781 L 617.808594 537.753906 Z M 617.808594 558.175781 L 617.808594 578.597656 L 679.050781 578.597656 L 679.050781 558.175781 Z M 495.324219 190.578125 L 474.910156 190.578125 L 474.910156 211 L 495.324219 211 Z M 474.910156 476.488281 L 474.910156 496.910156 L 495.324219 496.910156 L 495.324219 476.488281 Z M 515.738281 170.15625 L 495.324219 170.15625 L 495.324219 190.578125 L 515.738281 190.578125 Z M 556.566406 149.734375 L 515.738281 149.734375 L 515.738281 170.15625 L 556.566406 170.15625 Z M 617.808594 129.3125 L 556.566406 129.3125 L 556.566406 149.734375 L 617.808594 149.734375 Z M 434.082031 374.375 L 434.082031 272.265625 L 413.667969 272.265625 L 413.667969 415.222656 L 434.082031 415.222656 Z M 434.082031 374.375 "/><path style=" stroke:none;fill-rule:nonzero;fill:#1700d1;fill-opacity:1;" d="M 658.636719 231.421875 L 638.222656 231.421875 L 638.222656 190.578125 L 658.636719 190.578125 L 658.636719 170.15625 L 740.292969 170.15625 L 740.292969 190.578125 L 760.707031 190.578125 L 760.707031 231.421875 L 740.292969 231.421875 L 740.292969 251.84375 L 658.636719 251.84375 Z M 781.121094 476.488281 L 760.707031 476.488281 L 760.707031 292.6875 L 617.808594 292.6875 L 617.808594 313.109375 L 658.636719 313.109375 L 658.636719 476.488281 L 617.808594 476.488281 L 617.808594 496.910156 L 801.535156 496.910156 L 801.535156 476.488281 Z M 781.121094 476.488281 "/><g clip-rule="nonzero" clip-path="url(#cd120fdad3)"><path style=" stroke:none;fill-rule:nonzero;fill:#000000;fill-opacity:1;" d="M 638.222656 108.890625 L 617.808594 108.890625 L 617.808594 88.46875 L 781.121094 88.46875 L 781.121094 108.890625 Z M 597.394531 129.3125 L 617.808594 129.3125 L 617.808594 108.890625 L 556.566406 108.890625 L 556.566406 129.3125 Z M 801.535156 129.3125 L 842.363281 129.3125 L 842.363281 108.890625 L 781.121094 108.890625 L 781.121094 129.3125 Z M 556.566406 149.734375 L 556.566406 129.3125 L 515.738281 129.3125 L 515.738281 149.734375 Z M 862.777344 149.734375 L 883.191406 149.734375 L 883.191406 129.3125 L 842.363281 129.3125 L 842.363281 149.734375 Z M 515.738281 149.734375 L 495.324219 149.734375 L 495.324219 170.15625 L 515.738281 170.15625 Z M 903.605469 170.15625 L 903.605469 149.734375 L 883.191406 149.734375 L 883.191406 170.15625 Z M 495.324219 170.15625 L 474.910156 170.15625 L 474.910156 190.578125 L 495.324219 190.578125 Z M 924.019531 190.578125 L 924.019531 170.15625 L 903.605469 170.15625 L 903.605469 190.578125 Z M 474.910156 190.578125 L 454.496094 190.578125 L 454.496094 211 L 474.910156 211 Z M 944.433594 211 L 944.433594 190.578125 L 924.019531 190.578125 L 924.019531 211 Z M 454.496094 211 L 434.082031 211 L 434.082031 231.421875 L 454.496094 231.421875 Z M 964.847656 231.421875 L 964.847656 211 L 944.433594 211 L 944.433594 231.421875 Z M 434.082031 251.84375 L 434.082031 231.421875 L 413.667969 231.421875 L 413.667969 272.265625 L 434.082031 272.265625 Z M 964.847656 272.265625 L 985.261719 272.265625 L 985.261719 231.421875 L 964.847656 231.421875 Z M 985.261719 272.265625 L 985.261719 415.222656 L 1005.675781 415.222656 L 1005.675781 272.265625 Z M 413.667969 374.375 L 413.667969 272.265625 L 393.253906 272.265625 L 393.253906 415.222656 L 413.667969 415.222656 Z M 434.082031 415.222656 L 413.667969 415.222656 L 413.667969 456.066406 L 434.082031 456.066406 Z M 964.847656 435.644531 L 964.847656 456.066406 L 985.261719 456.066406 L 985.261719 415.222656 L 964.847656 415.222656 Z M 434.082031 456.066406 L 434.082031 476.488281 L 454.496094 476.488281 L 454.496094 456.066406 Z M 944.433594 476.488281 L 964.847656 476.488281 L 964.847656 456.066406 L 944.433594 456.066406 Z M 454.496094 476.488281 L 454.496094 496.910156 L 474.910156 496.910156 L 474.910156 476.488281 Z M 924.019531 496.910156 L 944.433594 496.910156 L 944.433594 476.488281 L 924.019531 476.488281 Z M 474.910156 496.910156 L 474.910156 517.332031 L 495.324219 517.332031 L 495.324219 496.910156 Z M 903.605469 517.332031 L 924.019531 517.332031 L 924.019531 496.910156 L 903.605469 496.910156 Z M 495.324219 517.332031 L 495.324219 537.753906 L 515.738281 537.753906 L 515.738281 517.332031 Z M 883.191406 537.753906 L 903.605469 537.753906 L 903.605469 517.332031 L 883.191406 517.332031 Z M 536.152344 537.753906 L 515.738281 537.753906 L 515.738281 558.175781 L 556.566406 558.175781 L 556.566406 537.753906 Z M 842.363281 537.753906 L 842.363281 558.175781 L 883.191406 558.175781 L 883.191406 537.753906 Z M 597.394531 558.175781 L 556.566406 558.175781 L 556.566406 578.597656 L 617.808594 578.597656 L 617.808594 558.175781 Z M 801.535156 558.175781 L 781.121094 558.175781 L 781.121094 578.597656 L 842.363281 578.597656 L 842.363281 558.175781 Z M 658.636719 578.597656 L 617.808594 578.597656 L 617.808594 599.019531 L 679.050781 599.019531 L 679.050781 578.597656 Z M 760.707031 599.019531 L 760.707031 680.707031 L 740.292969 680.707031 L 740.292969 701.132812 L 781.121094 701.132812 L 781.121094 578.597656 L 760.707031 578.597656 Z M 699.464844 599.019531 L 679.050781 599.019531 L 679.050781 639.863281 L 699.464844 639.863281 Z M 699.464844 639.863281 L 699.464844 660.285156 L 719.878906 660.285156 L 719.878906 639.863281 Z M 719.878906 660.285156 L 719.878906 680.707031 L 740.292969 680.707031 L 740.292969 660.285156 Z M 719.878906 660.285156 "/></g></g></svg>